<?xml version="1.0" encoding="UTF-8" standalone="no"?>
<!-- Created with Inkscape (http://www.inkscape.org/) -->

<svg
   version="1.1"
   id="svg1"
   width="961.55042"
   height="861.53772"
   viewBox="0 0 961.55045 861.53775"
   sodipodi:docname="logo-projart-final.pdf"
   xmlns:inkscape="http://www.inkscape.org/namespaces/inkscape"
   xmlns:sodipodi="http://sodipodi.sourceforge.net/DTD/sodipodi-0.dtd"
   xmlns="http://www.w3.org/2000/svg"
   xmlns:svg="http://www.w3.org/2000/svg">
  <defs
     id="defs1">
    <clipPath
       clipPathUnits="userSpaceOnUse"
       id="clipPath2">
      <path
         d="M 0,1024 H 1024 V 0 H 0 Z"
         transform="translate(-567.30001,-668.22002)"
         id="path2" />
    </clipPath>
    <clipPath
       clipPathUnits="userSpaceOnUse"
       id="clipPath4">
      <path
         d="M 0,1024 H 1024 V 0 H 0 Z"
         transform="translate(-381.99001,-642.75002)"
         id="path4" />
    </clipPath>
    <clipPath
       clipPathUnits="userSpaceOnUse"
       id="clipPath6">
      <path
         d="M 0,1024 H 1024 V 0 H 0 Z"
         transform="translate(-379.41001,-375.55001)"
         id="path6" />
    </clipPath>
    <clipPath
       clipPathUnits="userSpaceOnUse"
       id="clipPath8">
      <path
         d="M 0,1024 H 1024 V 0 H 0 Z"
         transform="translate(-615.80002,-327.21001)"
         id="path8" />
    </clipPath>
    <clipPath
       clipPathUnits="userSpaceOnUse"
       id="clipPath10">
      <path
         d="M 0,1024 H 1024 V 0 H 0 Z"
         transform="translate(-181.14,-373.80001)"
         id="path10" />
    </clipPath>
    <clipPath
       clipPathUnits="userSpaceOnUse"
       id="clipPath12">
      <path
         d="M 0,1024 H 1024 V 0 H 0 Z"
         transform="translate(-525.00001,-380.17001)"
         id="path12" />
    </clipPath>
    <clipPath
       clipPathUnits="userSpaceOnUse"
       id="clipPath14">
      <path
         d="M 0,1024 H 1024 V 0 H 0 Z"
         transform="translate(-721.40002,-373.50001)"
         id="path14" />
    </clipPath>
    <clipPath
       clipPathUnits="userSpaceOnUse"
       id="clipPath16">
      <path
         d="M 0,1024 H 1024 V 0 H 0 Z"
         transform="translate(-787.35002,-381.08001)"
         id="path16" />
    </clipPath>
    <clipPath
       clipPathUnits="userSpaceOnUse"
       id="clipPath18">
      <path
         d="M 0,1024 H 1024 V 0 H 0 Z"
         transform="translate(-263.00001,-373.15001)"
         id="path18" />
    </clipPath>
    <clipPath
       clipPathUnits="userSpaceOnUse"
       id="clipPath20">
      <path
         d="M 0,1024 H 1024 V 0 H 0 Z"
         transform="translate(-448.97001,-379.99001)"
         id="path20" />
    </clipPath>
    <clipPath
       clipPathUnits="userSpaceOnUse"
       id="clipPath22">
      <path
         d="M 0,1024 H 1024 V 0 H 0 Z"
         transform="translate(-376.70001,-791.33002)"
         id="path22" />
    </clipPath>
    <clipPath
       clipPathUnits="userSpaceOnUse"
       id="clipPath24">
      <path
         d="M 0,1024 H 1024 V 0 H 0 Z"
         transform="translate(-610.10002,-798.90002)"
         id="path24" />
    </clipPath>
    <clipPath
       clipPathUnits="userSpaceOnUse"
       id="clipPath26">
      <path
         d="M 0,1024 H 1024 V 0 H 0 Z"
         transform="translate(-616.04002,-485.39001)"
         id="path26" />
    </clipPath>
    <clipPath
       clipPathUnits="userSpaceOnUse"
       id="clipPath28">
      <path
         d="M 0,1024 H 1024 V 0 H 0 Z"
         transform="translate(-381.99001,-681.58172)"
         id="path28" />
    </clipPath>
  </defs>
  <sodipodi:namedview
     id="namedview1"
     pagecolor="#ffffff"
     bordercolor="#000000"
     borderopacity="0.25"
     inkscape:showpageshadow="2"
     inkscape:pageopacity="0.0"
     inkscape:pagecheckerboard="0"
     inkscape:deskcolor="#d1d1d1">
    <inkscape:page
       x="0"
       y="0"
       width="961.55048"
       height="861.53772"
       id="page2"
       margin="0"
       bleed="0" />
  </sodipodi:namedview>
  <g
     id="layer-MC0"
     inkscape:groupmode="layer"
     inkscape:label="Layer 1"
     transform="translate(-201.28001,-228.76002)">
    <path
       id="path1"
       d="m 0,0 c 0,-47.35 0.14,-94.7 -0.08,-142.05 3.49,-0.35 6.99,-0.7 10.5,-0.95 -0.05,44.6 -0.02,89.2 -0.01,133.8 -0.18,1.23 0.15,2.89 -1.06,3.67 C 6.49,-3.28 3.24,-1.61 0,0 m -195.77,31.18 c -1.05,-3.66 -0.3,-7.62 -0.53,-11.4 0.05,-59.35 -0.1,-118.71 0.08,-178.06 9.98,1.97 19.91,4.15 29.89,6.12 0.4,13.98 -0.03,27.97 0.12,41.94 -0.02,54.04 0,108.07 0,162.1 -9.85,-6.9 -20.04,-13.37 -29.56,-20.7 m 97.04,101.01 c -1.5,-1.11 -3.54,-2.3 -3.24,-4.48 0.01,-90.26 0.02,-180.52 0.02,-270.79 5.11,0.51 10.24,0.91 15.38,1.13 -0.05,30.35 -0.21,60.7 0.01,91.03 6.7,-4.12 12.72,-9.22 19.36,-13.44 0.3,19.71 0.08,39.43 0.17,59.14 -0.1,53.04 0.19,106.08 -0.11,159.11 -10.56,-7.19 -21.02,-14.53 -31.59,-21.7 m -20.53,9.39 c 20.22,13.96 40.01,28.53 60.13,42.63 19.78,-13.31 39.2,-27.15 58.78,-40.74 0.61,-9.21 0.19,-18.46 0.33,-27.69 C 0.04,90.45 -0.1,65.12 -0.04,39.79 0.07,36.37 -0.52,32.82 0.39,29.48 16.95,19.56 34.25,10.82 50.7,0.69 c 0.19,-49.19 -0.12,-98.38 0.18,-147.56 23.21,-3.26 45.94,-10.02 67.25,-19.8 5.81,-2.87 11.61,-5.78 17.29,-8.91 8.82,-6.07 18.64,-11.28 25.5,-19.7 -19.65,9.11 -40.67,14.95 -61.85,19.27 -20.7,3.17 -41.75,4.77 -62.67,3.03 -26.16,-1.18 -52.31,-4.54 -77.65,-11.29 -32.11,-8.62 -63.56,-19.91 -93.47,-34.47 -2.42,-1.08 -4.69,-2.71 -7.34,-3.12 -5.7,2.74 -10.89,6.45 -16.63,9.11 -17.78,8.67 -36.74,14.77 -56.04,18.97 -13.32,2.89 -26.96,3.72 -40.54,4.21 -9.78,-0.03 -19.49,-1.35 -29.17,-2.62 4.19,2.4 8.77,3.98 13.17,5.93 16.75,7.09 33.27,14.85 50.65,20.31 3.02,0.94 6.01,1.95 8.97,3.05 -0.05,66.22 0.05,132.44 -0.06,198.66 -0.21,2.02 0.97,3.66 2.6,4.71 5.25,2.95 9.77,6.98 14.66,10.48 10.68,7.84 21.13,15.99 32,23.57 4.31,-2.07 8.54,-4.32 12.84,-6.4 10.06,-5.2 20.08,-10.47 30.24,-15.46 0.19,29.64 -0.03,59.28 0.11,88.92"
       style="fill:#14374d;fill-opacity:1;fill-rule:nonzero;stroke:none"
       transform="matrix(1.3333333,0,0,-1.3333333,756.4,474.37333)"
       clip-path="url(#clipPath2)" />
    <path
       id="path3"
       d="M 0,0 7.74,2.359 V -18.56 l -7.7,-3.5 z"
       style="fill:#14374d;fill-opacity:1;fill-rule:nonzero;stroke:none"
       transform="matrix(1.3333333,0,0,-1.3333333,509.32,508.33333)"
       clip-path="url(#clipPath4)" />
    <path
       id="path5"
       d="m 0,0 c -10.12,-1.41 -19.95,-7.15 -24.59,-16.5 -7.26,-14.17 -7,-31.34 -1.95,-46.19 2.93,-9.04 9.64,-16.83 18.43,-20.59 5.77,-2.83 12.39,-2.59 18.63,-2.1 10.05,1.67 18.55,9 22.67,18.2 5.68,12.83 5.53,27.64 1.63,40.95 C 32.05,-16.15 25.03,-7.09 15.46,-2.69 10.63,-0.63 5.28,1.04 0,0 M -2.08,7.2 C 12.16,8.34 27.45,5.82 38.93,-3.22 60.62,-18.41 63.56,-52.23 47.58,-72.56 37.47,-85.51 20.87,-92.6 4.6,-92.62 c -14.18,-0.07 -29.07,3.54 -39.8,13.26 -19.63,17.15 -21.13,50.84 -3.02,69.61 9.23,10.12 22.54,16.03 36.14,16.95"
       style="fill:#14374d;fill-opacity:1;fill-rule:nonzero;stroke:none"
       transform="matrix(1.3333333,0,0,-1.3333333,505.88,864.6)"
       clip-path="url(#clipPath6)" />
    <path
       id="path7"
       d="M 0,0 C 8.11,-0.07 16.23,0.15 24.35,0.01 20.39,11.08 16.45,22.16 12.19,33.12 8.11,22.09 3.84,11.11 0,0 m 10.84,53.23 c 4.25,1.24 8.55,2.54 13.02,2.63 9.65,-27.43 19.93,-54.64 30.79,-81.61 1.19,-2.68 2.33,-5.48 4.35,-7.67 2.24,-2.12 5.31,-2.98 8.12,-4.1 0.05,-1.55 0.09,-3.11 0.14,-4.68 -13.69,-0.02 -27.39,-0.02 -41.08,0 0,1.6 0.01,3.19 0.03,4.77 3.11,0.38 6.16,1.15 9.07,2.32 0.16,2.73 0.07,5.51 -0.89,8.1 -2.09,6.23 -4.33,12.42 -6.6,18.58 -10.37,0.35 -20.77,0.34 -31.14,0.01 -2.22,-6.44 -4.95,-12.7 -6.93,-19.21 -0.71,-2.52 -1.12,-5.97 1.3,-7.72 2.86,-1.33 6.09,-1.48 9.16,-2.01 0.01,-1.6 0.02,-3.21 0.04,-4.82 -11.97,-0.02 -23.94,-0.12 -35.91,0.05 0.06,1.53 0.13,3.04 0.2,4.55 3.17,0.93 6.64,1.59 9.12,3.96 4.54,4.24 6.67,10.26 9.16,15.8 9.63,23.57 19.14,47.2 28.05,71.05"
       style="fill:#14374d;fill-opacity:1;fill-rule:nonzero;stroke:none"
       transform="matrix(1.3333333,0,0,-1.3333333,821.06667,929.05333)"
       clip-path="url(#clipPath8)" />
    <path
       id="path9"
       d="m 0,0 c -0.27,-13.25 -0.13,-26.5 -0.08,-39.74 7.12,-0.57 14.98,-1.41 21.37,2.45 4.73,2.75 6.73,8.4 7.11,13.59 0.6,6.57 -0.82,13.94 -5.84,18.58 C 16.36,0.16 7.69,0.11 0,0 M -30.18,6.85 C -15.52,6.08 -0.84,6.32 13.83,6.48 24.57,6.47 36.91,4.27 43.68,-4.95 c 4.72,-5.82 4.75,-13.72 4.1,-20.81 -0.96,-7.98 -6.69,-14.8 -13.9,-18.08 -10.58,-5.04 -22.61,-4.05 -33.98,-3.75 -0.04,-9.08 -0.1,-18.17 0.01,-27.25 -0.1,-3.07 1.63,-6.26 4.6,-7.36 2.68,-0.91 5.53,-1.13 8.31,-1.58 0.02,-1.66 0.05,-3.34 0.07,-5.02 -14.02,0 -28.04,-0.01 -42.07,0.01 0.02,1.61 0.04,3.2 0.08,4.78 4.28,0.79 10.39,1.79 10.79,7.23 0.39,20.98 0.06,41.98 0.17,62.97 -0.03,4.25 0.36,9.02 -2.37,12.61 -2.43,2.62 -6.34,2.23 -9.57,2.68 -0.04,1.8 -0.07,3.59 -0.1,5.37"
       style="fill:#14374d;fill-opacity:1;fill-rule:nonzero;stroke:none"
       transform="matrix(1.3333333,0,0,-1.3333333,241.52,866.93333)"
       clip-path="url(#clipPath10)" />
    <path
       id="path11"
       d="m 0,0 c 14.3,0.12 28.63,-0.48 42.9,0.71 1.26,-7.08 0.98,-14.28 1.81,-21.4 -1.4,0.23 -3.09,-0.32 -4.25,0.65 -1.68,2.46 -2.54,5.49 -4.74,7.56 -2.41,1.98 -5.48,2.9 -8.46,3.6 -8.27,1.84 -16.81,1.79 -25.24,1.66 -0.06,-10.97 -0.05,-21.93 -0.08,-32.9 7.22,0.26 14.7,-0.97 21.72,1.22 3.91,1 4.69,5.38 5.68,8.68 1.25,0.04 2.51,0.07 3.78,0.1 0.25,-10.69 0.24,-21.38 -0.02,-32.07 -1.29,0.02 -2.57,0.02 -3.84,0.02 -0.48,4.3 -1.32,9.48 -5.75,11.46 -6.79,2.66 -14.3,2.56 -21.48,2.5 -0.16,-12.67 0.01,-25.35 -0.06,-38.02 5.18,-1.66 10.68,-0.81 16.02,-0.96 6.73,-0.17 13.83,0.68 19.61,4.4 3.95,2.63 5.61,7.24 7.96,11.14 2,0.72 4.19,0.39 6.28,0.47 -2.16,-7.87 -4.21,-15.82 -5.01,-23.97 -24.91,0.01 -49.82,-0.12 -74.72,0.07 0.02,1.55 0.05,3.1 0.08,4.63 3.04,0.77 6.54,0.89 9.02,3.02 2.59,3.09 2.43,7.43 2.55,11.22 -0.15,19.01 -0.11,38.02 -0.16,57.02 -0.18,4.01 -0.2,8.49 -2.88,11.73 -2.24,2.35 -5.77,2.11 -8.72,2.51 -0.01,1.66 -0.02,3.32 -0.01,4.97 C -18.68,0.09 -9.34,-0.08 0,0"
       style="fill:#14374d;fill-opacity:1;fill-rule:nonzero;stroke:none"
       transform="matrix(1.3333333,0,0,-1.3333333,700,858.44)"
       clip-path="url(#clipPath12)" />
    <path
       id="path13"
       d="m 0,0 c -0.66,-13.11 0.12,-26.27 -0.26,-39.4 7.42,-0.15 15.65,-0.81 22.03,3.73 4.76,3.39 5.91,9.67 5.85,15.14 0.14,6.25 -1.7,13.22 -6.89,17.14 C 14.7,0.7 6.97,0.66 0,0 m -30.09,7.21 c 12.55,-0.83 25.13,-0.63 37.7,-0.53 9.57,0.32 19.76,0.17 28.2,-5 12.37,-6.61 15.4,-25.21 6.21,-35.66 -3.55,-4.46 -8.83,-6.85 -13.7,-9.52 3.32,-6.29 7.42,-12.12 11.16,-18.16 4.24,-6.3 7.81,-13.34 13.93,-18.09 3.2,-2.55 7.35,-3.25 11.25,-4.05 0.07,-1.89 0.15,-3.78 0.25,-5.69 -10.5,-0.32 -22.22,-0.62 -30.79,6.52 -11.32,9.71 -16.97,23.98 -24.55,36.45 -3.31,0.03 -6.62,0.03 -9.93,-0.03 0.02,-7.99 0.1,-15.99 -0.01,-23.99 0.02,-3.71 0.3,-8.05 3.27,-10.7 2.69,-1.57 5.89,-1.8 8.87,-2.49 0.08,-1.58 0.18,-3.17 0.29,-4.77 -14.09,0.08 -28.19,-0.16 -42.27,0.12 0.04,1.52 0.1,3.02 0.15,4.52 3.9,0.83 8.9,1.09 10.79,5.27 1.56,3.81 0.6,8.09 0.87,12.09 v 55.01 c -0.03,4.02 0,8.88 -3.31,11.71 -2.62,1.31 -5.63,1.22 -8.45,1.6 0.02,1.81 0.05,3.6 0.07,5.39"
       style="fill:#14374d;fill-opacity:1;fill-rule:nonzero;stroke:none"
       transform="matrix(1.3333333,0,0,-1.3333333,961.86667,867.33333)"
       clip-path="url(#clipPath14)" />
    <path
       id="path15"
       d="m 0,0 c 10.2,-0.88 20.42,-1.12 30.65,-1 17.29,0.13 34.61,-0.52 51.85,1.08 0.63,-7.44 2.5,-14.77 2.25,-22.27 -1.79,0.25 -3.55,0.49 -5.32,0.72 -1.35,4.45 -3.45,9.24 -8.1,11.05 -6.86,2.57 -14.4,2.34 -21.62,2.29 0.12,-23.33 -0.09,-46.65 -0.06,-69.98 -0.02,-3 0.05,-6.38 2.2,-8.73 2.61,-3.22 7.02,-3.57 10.77,-4.48 0.02,-1.58 0.03,-3.16 0.06,-4.75 -14.69,-0.03 -29.37,-0.01 -44.06,-0.01 0.01,1.65 0.02,3.29 0.05,4.91 4.93,0.48 11.69,1.23 12.69,7.26 0.66,11.24 0.11,22.56 0.29,33.83 -0.02,13.99 0.05,27.97 -0.05,41.96 -6.88,0.06 -14.09,0.22 -20.58,-2.37 -4.65,-1.87 -6.23,-6.93 -7.8,-11.22 -1.91,-0.1 -3.8,-0.21 -5.69,-0.34 C -1.89,-14.67 -0.53,-7.38 0,0"
       style="fill:#14374d;fill-opacity:1;fill-rule:nonzero;stroke:none"
       transform="matrix(1.3333333,0,0,-1.3333333,1049.8,857.22667)"
       clip-path="url(#clipPath16)" />
    <path
       id="path17"
       d="m 0,0 c 0.42,-13.02 -0.14,-26.05 0.07,-39.07 7.02,-0.16 14.53,-0.56 20.89,2.97 4.89,2.73 6.9,8.58 7.03,13.9 0.28,6.42 -1.18,13.5 -5.88,18.17 C 16,0.84 7.41,1.43 0,0 m -30.02,7.19 c 14.99,-0.05 29.99,-0.38 44.99,-0.14 9.85,0.41 20.31,-2.62 27,-10.18 7.94,-8.57 7.59,-23.18 -0.47,-31.56 -3.49,-3.97 -8.43,-6.1 -13.03,-8.48 3.24,-6.13 7.21,-11.82 10.71,-17.79 3.9,-6.26 7.38,-13.06 13.14,-17.88 3.3,-2.86 7.7,-3.74 11.86,-4.61 0.04,-1.89 0.1,-3.78 0.17,-5.69 -8.85,-0.04 -18.47,-0.85 -26.37,3.95 -8.04,4.59 -12.84,12.82 -17.58,20.44 -3.81,6.01 -6.95,12.41 -10.55,18.54 -3.27,0.07 -6.53,0.07 -9.8,0.02 -0.07,-9.01 -0.08,-18.02 -0.02,-27.03 -0.09,-3.07 1.13,-6.39 3.84,-8.06 2.52,-1.27 5.39,-1.51 8.12,-2.08 0.03,-1.58 0.05,-3.18 0.09,-4.78 -13.96,0.07 -27.92,-0.2 -41.87,0.13 0.04,1.5 0.08,2.98 0.13,4.45 4.88,0.68 11.29,2.43 11.48,8.45 0.41,20.64 0.07,41.31 0.18,61.96 -0.05,4.47 0.16,9.54 -2.84,13.19 -2.5,2.15 -6.11,1.62 -9.16,1.95 -0.01,1.74 -0.02,3.48 -0.02,5.2"
       style="fill:#14374d;fill-opacity:1;fill-rule:nonzero;stroke:none"
       transform="matrix(1.3333333,0,0,-1.3333333,350.66667,867.8)"
       clip-path="url(#clipPath18)" />
    <path
       id="path19"
       d="m 0,0 c 13.04,0.1 26.07,0.5 39.12,0.09 -0.06,-1.55 -0.09,-3.12 -0.13,-4.69 -2.6,-0.91 -5.77,-1.45 -7.33,-3.98 -2.16,-3.35 -2.39,-7.48 -2.53,-11.35 -0.2,-23.37 0,-46.75 -0.14,-70.12 -0.85,-9.56 -3.33,-20.36 -11.78,-26.09 -6.71,-4.74 -15.26,-4.19 -23.03,-3.66 -3.91,0.53 -7.49,3.7 -7.48,7.83 -0.63,3.06 1.21,8.15 5.08,6.85 3.4,-2.24 5.33,-7.69 10.15,-6.84 6.48,0.86 8.93,8.26 9.07,13.91 0.07,27.37 0.01,54.74 0.03,82.11 0.06,2.72 -0.21,5.71 -2.19,7.76 -2.21,2.51 -5.76,2.77 -8.8,3.49 C 0.02,-3.12 0.01,-1.56 0,0"
       style="fill:#14374d;fill-opacity:1;fill-rule:nonzero;stroke:none"
       transform="matrix(1.3333333,0,0,-1.3333333,598.62667,858.68)"
       clip-path="url(#clipPath20)" />
    <path
       id="path21"
       d="m 0,0 c 7.44,4.16 15.29,7.6 23.25,10.64 7.89,-7.91 13.47,-17.8 21.27,-25.79 1.47,-1.88 3.87,-0.65 5.71,-0.17 6.5,2.22 12.98,4.62 19.76,5.88 -0.23,-11.87 -0.22,-23.75 -0.04,-35.62 -5.77,-2.24 -11.75,-3.92 -17.36,-6.57 -3.69,-1.53 -7.4,-4.1 -11.6,-3.36 -4.3,2.08 -8.53,4.33 -12.84,6.4 -10.87,-7.58 -21.32,-15.73 -32,-23.57 -4.89,-3.5 -9.41,-7.53 -14.66,-10.48 -1.52,-0.59 -3.99,-0.63 -3.99,-2.82 -0.66,-8.96 0.02,-17.97 -0.21,-26.94 -0.02,-4.22 -3.36,-7.28 -5.16,-10.83 -13.2,-23.45 -19.39,-50.3 -20.66,-77.05 -0.66,-23.46 3.62,-47 11.89,-68.95 2.16,-6.16 5.78,-11.69 7.88,-17.89 -12.77,-4.17 -25.32,-9.05 -37.54,-14.61 -5.58,-2.22 -10.88,-5.14 -16.67,-6.8 5.38,5.18 10.91,10.2 16.87,14.7 2.06,1.16 0.7,3.69 0.33,5.41 -3.7,10.78 -7.07,21.7 -9.28,32.89 -10.56,0.4 -21.08,1.48 -31.62,2.25 -3.71,-0.18 -4.56,3.94 -5.24,6.74 -1.66,7.92 -2.99,15.98 -2.92,24.1 10.58,4.33 21.36,8.13 32,12.29 0.09,11.91 0.9,23.8 1.88,35.66 -4.94,3.19 -10.43,5.36 -15.49,8.35 -4.52,2.64 -9.67,4.14 -13.95,7.19 -0.94,3.45 0.22,7.01 0.86,10.41 1.37,5.55 2.25,11.3 4.55,16.56 0.91,2.5 4.07,2.3 6.24,2.58 9.36,0.23 18.72,0.07 28.07,-0.33 2.4,-0.36 3.84,1.78 4.67,3.71 2.54,6.01 5.26,11.94 8.19,17.77 1.64,3.65 4.12,6.93 5.17,10.82 -5.99,8.86 -14.09,16.16 -20.43,24.8 -1.72,1.79 -0.26,4.23 0.67,6.02 2.93,4.91 6.86,9.12 10.31,13.67 1.99,2.39 3.77,5.18 6.6,6.66 3.93,-0.13 7.25,-2.62 10.83,-3.97 8,-3.25 15.66,-7.32 23.83,-10.12 6.12,4.55 11.45,10.05 17.55,14.63 2.81,2.25 5.97,4.13 8.38,6.84 0.26,2.39 -0.69,4.69 -1.36,6.95 -2.21,6.36 -3.7,12.93 -5.63,19.38 -0.75,2.7 -1.66,5.41 -1.81,8.23 -0.46,2.33 2.21,3.19 3.7,4.34"
       style="fill:#e1dccc;fill-opacity:1;fill-rule:nonzero;stroke:none"
       transform="matrix(1.3333333,0,0,-1.3333333,502.26667,310.22667)"
       clip-path="url(#clipPath22)" />
    <path
       id="path23"
       d="m 0,0 c 1.07,1.18 2.08,2.88 3.83,3.04 4.68,-1.3 8.94,-3.75 13.41,-5.61 4.47,-2.33 9.8,-3.85 13.11,-7.85 0.19,-2.84 -0.79,-5.6 -1.45,-8.33 -2.55,-9.03 -4.79,-18.15 -7.71,-27.07 6.76,-6.62 15.21,-11.2 22,-17.81 1.78,-1.33 3.76,-3.96 6.25,-2.83 10.43,4.01 20.49,8.97 30.84,13.17 2.11,1.13 3.57,-1.1 4.8,-2.45 5.6,-6.93 11.87,-13.6 15.11,-22.06 -7.58,-8.98 -15.64,-17.61 -22.51,-27.16 3.4,-8.35 8.01,-16.13 11.85,-24.28 1.32,-2.85 2.85,-5.61 4.51,-8.28 8.55,0.85 17.16,0.41 25.73,0.99 2.94,0.12 5.96,0.29 8.84,-0.51 3.22,-3.54 3.76,-8.61 5.11,-13.04 1.31,-5.49 2.89,-10.95 3.26,-16.62 -9.34,-6.4 -20.11,-10.15 -30.07,-15.38 -0.3,-5.07 0.04,-10.15 0.56,-15.2 0.7,-6.72 0.14,-13.5 0.78,-20.22 6.62,-3.3 13.99,-4.47 20.82,-7.19 4.2,-1.65 8.44,-3.17 12.72,-4.59 0.45,-8.01 -1.59,-15.87 -2.64,-23.77 -0.73,-2.54 -0.65,-6.42 -3.61,-7.44 -11.57,-2.06 -23.49,-0.56 -35.02,-2.87 -2.02,-10.58 -4.84,-21.06 -9.13,-30.96 -0.6,-1.68 -1.47,-3.43 -1.24,-5.28 1.65,-2.15 3.51,-4.15 4.9,-6.51 -0.61,-0.04 -3.074,1.601 -3.074,1.601 -5.68,3.13 -5.146,3 -10.956,5.87 -4.066,2.254 -6.86,3.409 -8.03,3.799 -5.51,2.63 -11.26,4.74 -16.85,7.18 6.71,12.95 11.38,26.89 14.21,41.19 2.41,14.68 4.28,29.62 2.73,44.5 -1.76,37.99 -18.18,74.58 -43.87,102.41 -7.87,9.85 -18.08,17.36 -28.03,24.93 -12.82,9.15 -27.03,16.38 -42.14,20.91 -0.32,12.29 -0.1,24.6 -0.08,36.89 5.36,-1.49 10.62,-3.34 15.9,-5.1 2.21,-0.65 4.51,-1.48 6.85,-1.13 2.69,1.73 4.4,4.52 6.28,7.04 C -8.25,-10.5 -4,-5.35 0,0"
       style="fill:#e1dccc;fill-opacity:1;fill-rule:nonzero;stroke:none"
       transform="matrix(1.3333333,0,0,-1.3333333,813.46667,300.13333)"
       clip-path="url(#clipPath24)" />
    <path
       id="path25"
       d="m 0,0 c 11.61,1.19 23.3,0.36 34.95,0.63 20.7,-0.64 41.25,-4.62 60.9,-11.13 5.26,-1.93 10.84,-3.4 15.43,-6.77 -8.13,0.59 -15.461,1.13 -24.38,1.96 -18.281,0.931 -25.99,1.38 -38.93,0.07 -24.08,-1.05 -47.74,-6.12 -70.98,-12.22 -19.47,-4.93 -38.41,-11.68 -57.17,-18.81 -25.27,-9.66 -49.7,-21.46 -73.15,-34.96 -6.88,-3.94 -13.3,-8.61 -20.02,-12.82 -24.38,22.05 -51.7,41.11 -81.74,54.62 -17.45,7.48 -35.47,13.75 -53.97,18.04 0,0 -11.567,2.609 -15.43,3.78 8.453,1.046 16.54,0.133 24.146,-0.389 15.229,-1.345 41.152,-6.187 57.704,-10.961 18.71,-5.65 37.23,-12.51 53.87,-22.92 37.8,18.47 77.37,33.65 118.48,42.82 C -47.18,-3.99 -23.59,-1.4 0,0"
       style="fill:#c49a3f;fill-opacity:1;fill-rule:nonzero;stroke:none"
       transform="matrix(1.3333333,0,0,-1.3333333,821.38667,718.14667)"
       clip-path="url(#clipPath26)" />
    <path
       id="path27"
       d="M 0,0 7.74,2.359 V -18.56 l -7.7,-3.5 z"
       style="fill:#14374d;fill-opacity:1;fill-rule:nonzero;stroke:none"
       transform="matrix(1.3333333,0,0,-1.3333333,509.32,456.55773)"
       clip-path="url(#clipPath28)" />
    <text
       id="text28"
       xml:space="preserve"
       transform="matrix(1.3333333,0,0,1.3333333,209.96,1077.2695)"><tspan
         id="tspan28"
         style="font-variant:normal;font-weight:700;font-stretch:normal;font-size:47.4205px;font-family:'Liberation Serif';writing-mode:lr-tb;fill:#c49a3f;fill-opacity:1;fill-rule:nonzero;stroke:none"
         x="0"
         dx="0 0 0 0 0 0 0 0 0 0 -2.6081276 0 0 -2.6081276 -6.1077604 -6.1030183"
         y="0">ENGENHARIA &amp; AVALIAÇÕES</tspan></text>
  </g>
</svg>
